<?xml version="1.0" standalone="no"?>
<!DOCTYPE svg PUBLIC "-//W3C//DTD SVG 20010904//EN"
 "http://www.w3.org/TR/2001/REC-SVG-20010904/DTD/svg10.dtd">
<svg version="1.0" xmlns="http://www.w3.org/2000/svg"
 width="2000.000000pt" height="1500.000000pt" viewBox="0 0 2000.000000 1500.000000"
 preserveAspectRatio="xMidYMid meet">

<g transform="translate(0.000000,1500.000000) scale(0.100000,-0.100000)"
fill="#000000" stroke="none">
<path d="M5830 7515 l0 -4985 765 0 765 0 0 80 0 80 -685 0 -685 0 0 4825 0
4825 4005 0 4005 0 0 -4825 0 -4825 -685 0 -685 0 0 -80 0 -80 765 0 765 0 0
4985 0 4985 -4165 0 -4165 0 0 -4985z"/>
<path d="M9722 10679 c10 -183 19 -334 21 -336 3 -2 80 1 173 7 93 5 188 10
212 10 l42 0 0 46 0 47 -170 -7 -170 -8 0 29 c0 50 -20 436 -26 491 l-5 52
-47 0 -47 0 17 -331z"/>
<path d="M10600 10972 c-1 -4 -29 -151 -64 -327 -35 -176 -63 -321 -61 -323 4
-5 405 -82 425 -82 12 0 19 10 23 37 4 20 4 39 2 41 -2 3 -77 19 -165 37 -88
18 -163 35 -167 38 -5 6 24 173 33 188 2 4 67 -7 146 -22 147 -30 157 -29 158
13 0 9 2 23 5 30 4 11 -28 20 -140 42 -80 16 -147 31 -149 35 -5 7 29 179 37
187 3 3 78 -9 166 -27 89 -17 163 -30 165 -28 3 2 6 22 8 43 l3 40 -180 36
c-99 20 -195 39 -212 43 -18 4 -33 3 -33 -1z"/>
<path d="M9115 10693 c-21 -131 -48 -298 -60 -370 -24 -143 -24 -140 36 -123
l36 10 12 88 c7 48 15 94 17 104 3 12 37 24 119 44 63 15 116 26 118 23 2 -2
30 -39 62 -82 58 -77 59 -78 94 -72 20 4 40 10 44 15 7 6 -376 532 -428 588
-10 11 -20 -35 -50 -225z m155 -53 c33 -45 60 -87 60 -91 0 -8 -147 -45 -154
-38 -2 2 3 52 12 111 8 59 17 106 18 105 2 -2 31 -41 64 -87z"/>
<path d="M8438 10653 l-186 -96 151 -297 152 -297 198 98 c108 55 197 103 197
109 0 5 -7 25 -16 43 l-16 34 -153 -78 c-84 -44 -155 -79 -159 -79 -3 0 -26
40 -50 88 l-44 88 134 67 134 67 -20 40 -20 40 -132 -66 c-125 -63 -132 -65
-146 -48 -18 25 -84 155 -80 159 2 1 59 31 127 65 180 90 173 84 154 126 -9
19 -21 34 -27 34 -6 0 -95 -44 -198 -97z"/>
<path d="M11360 10730 c-100 -18 -159 -108 -131 -201 8 -26 39 -68 95 -126
115 -122 126 -148 83 -198 -49 -57 -163 -39 -254 40 -28 25 -55 45 -60 45 -5
0 -22 -13 -37 -29 l-27 -28 25 -31 c57 -66 198 -132 286 -132 131 0 217 132
166 255 -8 19 -53 75 -100 125 -93 98 -106 130 -66 170 43 43 171 11 234 -58
l18 -21 34 26 c19 14 34 29 34 33 0 13 -109 91 -153 110 -52 22 -101 29 -147
20z"/>
<path d="M11883 10465 c-13 -19 -23 -37 -23 -39 0 -2 29 -23 65 -46 44 -29 64
-48 60 -57 -3 -8 -73 -115 -156 -239 -162 -238 -159 -232 -102 -266 l28 -16
161 238 161 239 68 -46 69 -46 23 29 c12 16 23 34 23 39 0 10 -337 245 -350
245 -3 0 -15 -16 -27 -35z"/>
<path d="M7873 10286 c-22 -7 -56 -24 -75 -37 -48 -34 -152 -121 -156 -130 -3
-7 328 -428 386 -491 l25 -27 29 21 c16 11 32 27 35 34 3 8 -24 49 -59 91 -35
43 -67 83 -71 89 -4 7 12 27 37 48 l44 35 136 -45 136 -46 40 32 c22 17 40 35
40 38 0 4 -65 29 -144 55 l-143 49 8 39 c12 53 -4 113 -45 170 -54 73 -139
102 -223 75z m106 -100 c54 -28 80 -95 58 -149 -13 -29 -100 -118 -116 -117
-7 1 -145 175 -148 187 -2 9 79 73 106 85 27 11 71 9 100 -6z"/>
<path d="M12268 9830 c-186 -75 -340 -139 -343 -141 -2 -3 10 -19 28 -37 l32
-31 95 40 94 40 85 -85 85 -85 -39 -96 -38 -96 33 -34 34 -35 138 343 c76 188
137 345 135 348 -1 3 -154 -56 -339 -131z m158 -110 c-22 -55 -44 -100 -47
-100 -12 0 -123 114 -114 117 6 2 51 21 100 43 50 21 93 39 96 39 4 1 -12 -44
-35 -99z"/>
<path d="M7273 9755 l-33 -44 85 -177 c47 -97 84 -178 83 -179 -2 -2 -82 10
-178 26 -96 16 -184 29 -196 29 -13 0 -32 -16 -53 -45 -27 -38 -29 -45 -14
-45 10 1 124 -14 253 -31 l235 -33 92 -67 91 -68 28 40 c16 23 23 43 18 48 -5
4 -45 35 -89 68 l-80 60 -104 232 c-58 127 -105 231 -105 231 -1 -1 -16 -21
-33 -45z"/>
<path d="M12857 9603 l-37 -26 45 -63 c25 -34 45 -66 45 -71 0 -4 -102 -80
-227 -168 -125 -88 -228 -164 -230 -170 -1 -5 10 -25 25 -43 l27 -32 233 165
c262 186 231 177 293 83 17 -27 36 -48 41 -48 19 0 69 42 65 54 -4 11 -220
319 -236 338 -4 4 -23 -4 -44 -19z"/>
<path d="M6926 8836 c86 -130 155 -238 153 -240 -2 -2 -117 -34 -254 -70 -138
-37 -258 -70 -268 -74 -13 -5 69 -41 290 -124 169 -64 314 -118 322 -120 8 -2
19 14 28 40 8 24 13 44 12 46 -2 1 -86 33 -186 71 -101 38 -182 69 -180 71 1
1 85 23 187 49 102 26 188 49 193 52 4 2 -42 77 -103 165 -60 89 -108 163
-106 165 2 2 79 -26 172 -62 93 -36 175 -66 182 -68 8 -1 22 17 32 44 l19 46
-312 118 c-172 65 -318 120 -325 123 -8 3 57 -102 144 -232z"/>
<path d="M12969 8874 l-297 -135 90 -197 c49 -108 93 -201 98 -205 6 -7 60 13
78 28 1 1 -29 71 -68 155 -38 84 -70 157 -70 162 0 4 15 14 33 22 17 8 57 25
89 39 l56 26 63 -139 63 -138 38 19 c21 11 38 22 38 25 0 3 -27 64 -60 136
-33 72 -59 132 -57 134 1 1 41 20 90 42 l87 41 24 -47 c13 -26 45 -95 71 -154
26 -60 49 -108 52 -108 4 0 65 30 71 35 7 6 -173 395 -183 394 -5 0 -143 -61
-306 -135z"/>
<path d="M9949 8727 c-141 -77 -771 -462 -779 -476 -20 -39 -11 -78 36 -147
72 -106 74 -108 74 -46 0 67 19 113 61 146 19 14 162 107 318 206 275 173 287
180 337 180 49 0 62 -7 345 -186 162 -103 305 -196 318 -208 33 -30 51 -77 51
-137 l0 -52 18 24 c10 13 37 54 60 91 49 79 54 123 20 162 -30 33 -764 447
-803 452 -16 3 -42 -1 -56 -9z"/>
<path d="M9938 8456 c-170 -103 -525 -331 -535 -344 -10 -12 -13 -83 -13 -279
l0 -263 -305 0 -305 0 0 -655 0 -655 1215 0 1215 0 0 655 0 655 -305 0 -305 0
0 263 c0 144 -4 267 -8 274 -8 13 -555 364 -584 375 -10 4 -37 -6 -70 -26z
m-90 -573 l3 -53 -55 0 -56 0 0 56 0 55 53 -3 52 -3 3 -52z m400 0 l3 -53 -55
0 -56 0 0 48 c0 27 3 52 7 55 3 4 27 6 52 5 l46 -3 3 -52z m-398 -308 l0 -55
-55 0 -55 0 0 55 0 55 55 0 55 0 0 -55z m400 0 l0 -55 -55 0 -55 0 0 55 0 55
55 0 55 0 0 -55z m-402 -302 l3 -53 -55 0 -56 0 0 56 0 55 53 -3 52 -3 3 -52z
m402 2 l0 -55 -55 0 -55 0 0 48 c0 27 3 52 7 55 3 4 28 7 55 7 l48 0 0 -55z
m-1062 -52 l3 -53 -55 0 -56 0 0 48 c0 27 2 51 5 54 3 3 27 5 53 4 l47 -1 3
-52z m1722 0 l0 -53 -55 0 -55 0 0 48 c0 27 2 51 5 54 3 2 27 4 55 4 l50 -1 0
-52z m-1062 -255 l-3 -53 -52 -3 -53 -3 0 55 0 56 56 0 55 0 -3 -52z m402 -4
l0 -55 -52 3 -53 3 -3 53 -3 52 55 0 56 0 0 -56z m-1060 -49 l0 -55 -55 0 -55
0 0 55 0 55 55 0 55 0 0 -55z m1720 0 l0 -55 -55 0 -55 0 0 55 0 55 55 0 55 0
0 -55z m-1062 -252 l3 -53 -55 0 -56 0 0 56 0 55 53 -3 52 -3 3 -52z m402 2
l0 -55 -55 0 -55 0 0 48 c0 27 3 52 7 55 3 4 28 7 55 7 l48 0 0 -55z m-1062
-52 l3 -53 -55 0 -56 0 0 56 0 55 53 -3 52 -3 3 -52z m1722 2 l0 -55 -55 0
-55 0 0 48 c0 27 3 52 7 55 3 4 28 7 55 7 l48 0 0 -55z"/>
<path d="M6760 7609 c-91 -41 -148 -121 -157 -219 -15 -167 125 -304 292 -287
219 22 315 296 159 451 -74 75 -199 98 -294 55z"/>
<path d="M13102 7617 c-45 -14 -118 -81 -144 -130 -87 -172 44 -387 237 -387
101 0 205 68 245 161 27 63 25 162 -4 221 -27 56 -90 114 -143 132 -52 18
-141 19 -191 3z"/>
<path d="M7139 6518 l-317 -121 15 -44 c8 -23 19 -43 23 -43 5 0 90 31 190 69
173 66 180 68 164 43 -10 -15 -59 -90 -111 -167 -51 -77 -89 -142 -85 -146 4
-3 86 -26 182 -49 96 -23 178 -46 182 -49 4 -4 -75 -38 -176 -76 l-184 -70 16
-40 c8 -22 18 -43 21 -47 4 -4 148 46 321 112 173 66 319 121 323 123 5 1
-114 35 -264 75 -150 40 -275 75 -278 77 -2 3 66 111 152 240 87 129 154 235
150 234 -5 0 -150 -55 -324 -121z"/>
<path d="M12576 6473 c-10 -21 -50 -108 -88 -193 -39 -85 -72 -158 -74 -161
-4 -6 588 -279 604 -279 5 0 49 91 99 203 l91 202 -31 17 c-18 9 -36 17 -42
18 -5 0 -26 -35 -45 -78 -19 -42 -51 -114 -72 -159 l-38 -82 -87 40 c-48 22
-89 42 -91 43 -1 2 24 63 58 137 33 73 60 134 60 136 0 1 -18 12 -40 23 l-39
20 -19 -43 c-10 -23 -38 -86 -62 -139 l-43 -96 -56 25 c-31 14 -71 31 -88 39
-18 8 -33 19 -33 25 0 7 30 77 66 156 36 80 64 146 62 148 -5 4 -67 35 -71 35
-2 0 -11 -17 -21 -37z"/>
<path d="M12242 5835 c-67 -95 -122 -175 -122 -178 0 -2 15 -16 34 -31 l35
-26 47 65 c29 42 52 64 60 61 8 -3 113 -75 233 -161 120 -85 223 -155 227
-155 15 0 58 70 48 79 -5 4 -109 79 -231 165 -123 87 -223 161 -223 165 0 5
13 26 28 47 68 94 67 88 24 116 l-38 26 -122 -173z"/>
<path d="M7610 5744 l-105 -234 -82 -61 c-46 -33 -85 -64 -87 -68 -2 -3 8 -23
23 -44 l28 -37 89 67 89 66 253 35 c138 20 252 38 252 41 0 4 -15 23 -33 45
l-33 38 -189 -31 c-105 -17 -193 -31 -197 -31 -4 0 15 44 41 98 26 53 65 134
86 179 l38 83 -28 40 c-16 23 -31 42 -34 44 -3 2 -53 -101 -111 -230z"/>
<path d="M11917 5436 c71 -178 264 -650 268 -654 3 -3 20 8 37 25 l31 32 -41
98 -41 98 82 83 c45 45 86 82 92 82 6 0 48 -16 94 -35 45 -19 88 -35 95 -35
13 0 72 57 65 64 -2 2 -160 67 -351 144 l-347 140 16 -42z m335 -195 c4 -4
-19 -33 -52 -66 -33 -32 -61 -57 -63 -54 -2 3 -48 109 -84 196 -4 10 183 -61
199 -76z"/>
<path d="M8021 5099 l-210 -262 36 -29 c20 -15 39 -28 42 -28 3 1 38 41 76 90
39 50 72 90 75 90 3 0 24 -17 48 -38 l43 -37 -16 -139 -17 -140 39 -32 c42
-36 53 -41 54 -21 0 6 8 75 17 151 l17 140 41 2 c119 6 228 135 208 246 -11
59 -51 113 -131 178 -43 35 -86 70 -95 78 -15 12 -37 -12 -227 -249z m290 80
c64 -53 80 -100 53 -155 -45 -90 -120 -102 -209 -35 -30 23 -55 44 -55 47 0
10 144 184 153 184 5 0 31 -18 58 -41z"/>
<path d="M11557 5145 c-93 -62 -171 -116 -174 -119 -5 -5 35 -76 43 -76 3 0
34 20 71 44 l66 45 40 -57 c22 -31 94 -138 160 -237 66 -99 121 -181 122 -183
2 -2 21 9 44 23 l40 27 -160 239 c-87 131 -159 240 -159 243 0 2 29 23 65 46
36 23 65 47 65 52 0 13 -39 68 -48 68 -4 -1 -83 -52 -175 -115z"/>
<path d="M8574 4808 c-58 -117 -126 -250 -150 -295 l-45 -81 196 -101 c107
-56 198 -101 203 -101 9 0 47 68 41 74 -2 2 -71 39 -154 82 -82 42 -151 78
-153 80 -4 3 89 174 95 174 2 0 63 -30 134 -66 72 -36 132 -65 133 -63 6 7 36
68 36 73 0 3 -58 35 -130 71 -71 36 -130 70 -130 75 0 13 79 170 85 170 3 0
73 -34 155 -75 l150 -75 19 38 20 39 -188 96 c-104 53 -193 97 -199 97 -6 0
-59 -96 -118 -212z"/>
<path d="M11180 4924 c-128 -34 -195 -105 -195 -205 0 -66 20 -101 76 -134 33
-20 59 -22 272 -25 29 0 46 -7 68 -29 43 -44 39 -75 -19 -131 -52 -50 -100
-69 -187 -73 l-50 -2 -3 -47 -3 -48 54 0 c114 0 253 64 302 139 64 95 31 216
-69 262 -32 15 -66 19 -157 19 -136 0 -174 10 -187 50 -23 65 46 128 165 150
l63 12 0 39 c0 38 0 39 -37 38 -21 0 -63 -7 -93 -15z"/>
<path d="M9168 4476 l-228 -301 47 -12 c26 -7 48 -11 48 -10 1 1 30 39 64 85
52 69 66 81 84 77 12 -3 62 -16 111 -28 49 -13 93 -29 97 -37 4 -8 14 -55 21
-105 l13 -89 44 -13 c25 -7 45 -12 47 -10 1 2 -112 706 -118 733 -2 6 -105
-124 -230 -290z m208 -124 c-2 -2 -22 1 -45 7 -23 6 -59 16 -81 21 l-39 11 67
91 67 92 17 -109 c10 -60 16 -111 14 -113z"/>
<path d="M10628 4736 c-159 -31 -208 -44 -208 -55 0 -8 28 -156 61 -328 47
-241 65 -313 76 -313 8 0 109 19 224 41 168 34 209 45 205 56 -4 8 -6 22 -6
31 -1 43 -10 43 -166 12 -82 -16 -159 -32 -170 -35 -20 -4 -23 2 -40 90 -10
52 -15 98 -11 101 3 4 59 17 124 30 181 36 165 29 157 72 -4 20 -8 40 -10 43
-2 4 -66 -6 -141 -22 -76 -15 -143 -28 -148 -29 -6 0 -16 30 -23 68 -6 37 -14
81 -18 98 l-6 31 166 33 166 33 -6 36 c-4 20 -9 39 -13 42 -3 3 -99 -12 -213
-35z"/>
<path d="M9756 4668 c-5 -18 -37 -651 -33 -655 5 -4 417 -26 421 -22 2 2 7 23
11 47 l7 42 -44 1 c-88 1 -287 15 -291 19 -3 3 2 128 10 277 9 150 13 279 9
288 -7 19 -85 21 -90 3z"/>
<path d="M8114 2775 c-4 -9 -2 -21 4 -27 15 -15 44 -1 40 19 -4 23 -36 29 -44
8z"/>
<path d="M9676 2783 c-3 -3 -6 -69 -6 -145 0 -116 2 -138 15 -138 13 0 15 22
15 139 0 127 -6 162 -24 144z"/>
<path d="M11196 2783 c-3 -3 -6 -69 -6 -145 0 -116 2 -138 15 -138 12 0 15 17
15 95 l0 95 38 0 c20 0 42 -4 49 -8 7 -5 13 -40 15 -92 3 -73 6 -85 21 -88 18
-4 19 3 15 92 -4 111 -7 116 -85 116 l-53 0 0 34 c0 34 -11 52 -24 39z"/>
<path d="M11554 2775 c-4 -9 -2 -21 4 -27 15 -15 44 -1 40 19 -4 23 -36 29
-44 8z"/>
<path d="M7870 2640 c0 -118 2 -140 15 -140 13 0 15 20 15 123 0 68 2 126 4
128 3 3 29 2 58 -1 l53 -5 0 -105 0 -105 -42 -3 c-29 -2 -43 -8 -43 -18 0 -23
85 -19 110 6 17 17 20 33 20 123 0 131 -5 137 -113 137 l-77 0 0 -140z"/>
<path d="M10962 2768 c3 -7 20 -13 39 -14 l34 0 3 -127 c2 -103 5 -127 17
-127 12 0 15 24 17 127 l3 127 34 0 c19 1 36 7 38 14 4 9 -19 12 -92 12 -73 0
-96 -3 -93 -12z"/>
<path d="M10650 2745 c0 -14 -7 -28 -15 -31 -8 -4 -15 -10 -15 -15 0 -5 7 -9
15 -9 12 0 15 -16 15 -85 0 -90 8 -105 59 -105 29 0 26 18 -4 30 -24 9 -25 14
-25 85 0 73 1 75 25 75 31 0 33 17 3 22 -17 2 -24 11 -26 31 -4 35 -32 37 -32
2z"/>
<path d="M8126 2713 c-3 -3 -6 -53 -6 -110 0 -85 3 -103 15 -103 12 0 15 18
15 104 0 96 -7 126 -24 109z"/>
<path d="M8865 2710 c-3 -6 8 -55 26 -110 31 -94 35 -100 61 -100 26 0 29 5
58 97 29 90 33 132 11 118 -6 -3 -22 -44 -38 -90 -15 -47 -30 -85 -33 -85 -4
0 -19 41 -33 90 -26 85 -38 103 -52 80z"/>
<path d="M9975 2710 c-3 -6 8 -55 26 -110 31 -94 35 -100 60 -100 26 0 29 6
59 95 30 89 34 135 11 120 -6 -3 -22 -44 -38 -90 -15 -47 -30 -82 -34 -77 -3
4 -19 44 -34 90 -25 78 -36 94 -50 72z"/>
<path d="M11566 2713 c-3 -3 -6 -53 -6 -110 0 -85 3 -103 15 -103 12 0 15 18
15 104 0 96 -7 126 -24 109z"/>
<path d="M11635 2710 c-3 -6 8 -55 26 -110 31 -94 35 -100 60 -100 26 0 29 6
59 95 30 89 34 135 11 120 -6 -3 -22 -44 -38 -90 -15 -47 -30 -85 -33 -85 -3
0 -18 41 -33 90 -26 85 -38 103 -52 80z"/>
<path d="M8222 2698 c-17 -17 -15 -73 3 -88 9 -7 38 -15 65 -18 49 -4 65 -18
54 -47 -4 -10 -20 -15 -51 -15 -36 0 -46 4 -50 20 -8 29 -33 25 -33 -5 0 -31
26 -45 88 -45 55 0 82 20 82 62 0 36 -30 58 -77 58 -76 0 -85 62 -9 68 31 3
37 0 46 -23 11 -28 33 -29 38 -3 6 30 -26 48 -87 48 -31 0 -62 -5 -69 -12z"/>
<path d="M8450 2700 c-11 -7 -15 -29 -15 -90 0 -96 11 -110 85 -110 58 0 83
17 78 53 -4 34 -21 37 -28 5 -5 -20 -12 -23 -50 -23 l-45 0 0 75 c0 71 1 75
24 78 43 7 71 -6 71 -33 0 -16 6 -25 15 -25 18 0 21 50 3 68 -14 14 -116 16
-138 2z"/>
<path d="M8672 2698 c-7 -7 -12 -44 -12 -95 0 -94 7 -103 82 -103 71 0 83 15
83 103 0 95 -9 107 -84 107 -31 0 -62 -5 -69 -12z m106 -17 c9 -5 12 -28 10
-77 l-3 -69 -45 0 -45 0 -3 69 c-3 75 3 86 48 86 14 0 31 -4 38 -9z"/>
<path d="M9096 2694 c-12 -11 -16 -35 -16 -88 0 -90 13 -106 87 -106 52 0 83
20 83 53 0 24 -27 21 -33 -3 -4 -16 -14 -20 -50 -20 -51 0 -57 8 -57 76 0 63
13 84 53 84 39 0 57 -15 57 -47 0 -20 -5 -23 -41 -23 -28 0 -39 -4 -37 -12 5
-15 50 -22 84 -14 21 6 24 12 24 49 0 24 -5 48 -12 55 -18 18 -123 15 -142 -4z"/>
<path d="M9310 2691 c-5 -11 -10 -58 -10 -105 0 -79 2 -86 20 -86 18 0 20 8
22 93 l3 92 33 3 c48 5 39 22 -13 22 -34 0 -47 -5 -55 -19z"/>
<path d="M9782 2698 c-8 -8 -12 -46 -12 -105 0 -76 3 -93 15 -93 12 0 15 17
15 90 0 87 1 90 25 96 14 3 36 3 50 0 24 -6 25 -9 25 -97 0 -81 2 -90 18 -87
14 3 17 16 20 82 4 108 -8 126 -86 126 -32 0 -63 -5 -70 -12z"/>
<path d="M10206 2694 c-22 -21 -22 -141 0 -172 12 -18 25 -22 68 -22 56 0 86
19 86 53 0 24 -27 21 -33 -3 -4 -16 -14 -20 -51 -20 l-47 0 3 78 3 77 33 3
c40 4 62 -12 62 -44 0 -21 -5 -24 -41 -24 -28 0 -39 -4 -36 -12 2 -8 22 -13
53 -13 l49 0 3 43 c2 24 -2 50 -9 58 -17 20 -123 19 -143 -2z"/>
<path d="M10432 2698 c-7 -7 -12 -28 -12 -48 0 -43 26 -60 91 -60 38 0 40 -2
37 -27 -3 -25 -7 -28 -46 -31 -37 -3 -44 0 -49 18 -6 22 -33 24 -40 3 -9 -26
35 -53 87 -53 117 0 125 108 9 120 -50 5 -54 7 -57 32 -3 22 2 29 22 34 38 9
73 -3 79 -27 3 -12 10 -18 16 -14 15 8 14 38 -1 53 -16 16 -120 16 -136 0z"/>
<path d="M11422 2698 c-8 -8 -12 -46 -12 -105 0 -76 3 -93 15 -93 16 0 18 16
15 102 -2 62 13 88 50 88 17 0 30 5 30 10 0 14 -84 12 -98 -2z"/>
<path d="M11866 2694 c-22 -21 -22 -141 0 -172 12 -18 25 -22 68 -22 56 0 86
19 86 53 0 24 -27 21 -33 -3 -4 -16 -14 -20 -51 -20 -51 0 -51 -1 -47 99 2 57
6 61 45 61 38 0 56 -15 56 -47 0 -20 -5 -23 -41 -23 -28 0 -39 -4 -36 -12 2
-8 22 -13 53 -13 l49 0 3 43 c2 24 -2 50 -9 58 -17 20 -123 19 -143 -2z"/>
<path d="M9452 2528 c4 -27 33 -36 42 -13 8 22 -1 35 -25 35 -15 0 -20 -6 -17
-22z"/>
<path d="M10766 2541 c-10 -16 6 -42 23 -39 9 2 17 13 19 26 3 16 -2 22 -17
22 -11 0 -22 -4 -25 -9z"/>
<path d="M12073 2534 c-3 -8 -1 -20 5 -26 16 -16 42 -2 42 22 0 24 -38 28 -47
4z"/>
</g>
</svg>
